
<svg version="1.1" id="Layer_1" xmlns="http://www.w3.org/2000/svg" xmlns:xlink="http://www.w3.org/1999/xlink" x="0px" y="0px"
	 viewBox="0 0 128 128" style="enable-background:new 0 0 128 128;" xml:space="preserve">
<style type="text/css">
	.st0{fill:#19b2ff;}
	.st1{fill:#051118;}
</style>
<rect class="st0" width="128" height="128"/>
<polygon class="st1" points="112,8 96,0 80,8 64,0 48,8 32,0 16,8 0,0 0,8 16,16 32,8 48,16 64,8 80,16 96,8 112,16 128,8 128,0 "/>
<polygon class="st1" points="112,24 96,16 80,24 64,16 48,24 32,16 16,24 0,16 0,24 16,32 32,24 48,32 64,24 80,32 96,24 112,32 
	128,24 128,16 "/>
<polygon class="st1" points="112,40 96,32 80,40 64,32 48,40 32,32 16,40 0,32 0,40 16,48 32,40 48,48 64,40 80,48 96,40 112,48 
	128,40 128,32 "/>
<polygon class="st1" points="112,56 96,48 80,56 64,48 48,56 32,48 16,56 0,48 0,56 16,64 32,56 48,64 64,56 80,64 96,56 112,64 
	128,56 128,48 "/>
<polygon class="st1" points="112,72 96,64 80,72 64,64 48,72 32,64 16,72 0,64 0,72 16,80 32,72 48,80 64,72 80,80 96,72 112,80 
	128,72 128,64 "/>
<polygon class="st1" points="112,88 96,80 80,88 64,80 48,88 32,80 16,88 0,80 0,88 16,96 32,88 48,96 64,88 80,96 96,88 112,96 
	128,88 128,80 "/>
<polygon class="st1" points="112,104 96,96 80,104 64,96 48,104 32,96 16,104 0,96 0,104 16,112 32,104 48,112 64,104 80,112 
	96,104 112,112 128,104 128,96 "/>
<polygon class="st1" points="112,120 96,112 80,120 64,112 48,120 32,112 16,120 0,112 0,120 16,128 32,120 48,128 64,120 80,128 
	96,120 112,128 128,120 128,112 "/>
</svg>
