<svg version="1.1" xmlns="http://www.w3.org/2000/svg" xmlns:xlink="http://www.w3.org/1999/xlink" x="0px" y="0px" viewBox="0 0 24 24">
<path d="M13.99,1c0.07,0,0.14,0.01,0.2,0.02c0.36,0.1,0.64,0.33,0.83,0.68c0.4,0.74,0.39,1.89-0.03,3.24l-0.06,0.18
c-0.16,0.52-0.39,1.24-0.67,1.99c-0.16,0.42-0.02,0.9,0.35,1.16c0.18,0.13,0.38,0.19,0.59,0.19c0.22,0,0.44-0.07,0.62-0.22
c0.65-0.51,1.27-0.96,1.73-1.29l0.1-0.07c1.24-0.88,2.15-1.07,2.69-1.07c0.41,0,0.96,0.11,1.29,0.62c0.28,0.42,0.12,1.31,0,1.67
C21.5,8.53,21.66,9,22.02,9.25c0.3,0.21,0.96,0.84,0.98,1.35c0.02,0.37-0.11,0.71-0.39,1c-0.58,0.61-1.68,0.96-3.09,0.97l-0.16,0
c-0.22,0-0.47,0-0.74,0c-0.42,0-0.9-0.01-1.39-0.03c-0.01,0-0.03,0-0.04,0c-0.43,0-0.82,0.28-0.95,0.69
c-0.14,0.43,0.02,0.9,0.4,1.14c0.71,0.47,1.34,0.94,1.8,1.28l0.07,0.05c1.14,0.85,1.82,1.77,1.93,2.61c0.05,0.4-0.04,0.75-0.27,1.04
c-0.3,0.38-1.14,0.52-1.59,0.52c-0.01,0-0.01,0-0.02,0c-0.44,0-0.83,0.28-0.95,0.7c-0.11,0.35-0.5,1.17-0.98,1.35
c-0.15,0.06-0.3,0.08-0.45,0.08c-0.76,0-1.81-0.73-2.5-2.8l-0.02-0.05c-0.19-0.55-0.44-1.3-0.67-2.13
c-0.12-0.43-0.51-0.73-0.96-0.73c-0.45,0-0.84,0.3-0.96,0.73c-0.21,0.76-0.45,1.47-0.62,1.99l-0.06,0.19
c-0.69,2.06-1.75,2.79-2.5,2.79c-0.15,0-0.31-0.03-0.45-0.08c-0.48-0.18-0.87-0.99-0.98-1.35c-0.13-0.42-0.53-0.71-0.97-0.71
c-0.49,0-1.3-0.16-1.59-0.52c-0.23-0.29-0.32-0.64-0.27-1.04c0.11-0.83,0.79-1.76,1.93-2.61l0.15-0.11
c0.44-0.33,1.05-0.78,1.72-1.22c0.38-0.25,0.54-0.72,0.4-1.14c-0.13-0.41-0.52-0.69-0.95-0.69c-0.02,0-0.03,0-0.05,0
c-0.48,0.02-0.94,0.03-1.35,0.03c-0.27,0-0.51,0-0.73,0l-0.2,0c-1.42-0.02-2.52-0.36-3.1-0.97c-0.28-0.3-0.41-0.63-0.39-1
c0.02-0.51,0.67-1.13,0.98-1.35C2.34,9,2.49,8.53,2.35,8.12c-0.12-0.36-0.28-1.25,0-1.67c0.33-0.51,0.89-0.61,1.29-0.61
c0.54,0,1.45,0.19,2.69,1.07l0.08,0.05c0.47,0.33,1.1,0.78,1.76,1.31C8.36,8.4,8.58,8.47,8.8,8.47c0.21,0,0.41-0.06,0.59-0.19
c0.36-0.26,0.51-0.74,0.35-1.16c-0.28-0.74-0.5-1.46-0.67-1.99L9.01,4.95C8.59,3.6,8.57,2.45,8.98,1.71
c0.2-0.36,0.48-0.59,0.83-0.68C9.87,1.01,9.94,1,10.01,1c0.53,0,1.2,0.4,1.39,0.54c0.18,0.13,0.39,0.2,0.6,0.2
c0.21,0,0.42-0.07,0.6-0.2C12.75,1.43,13.43,1,13.99,1C13.99,1,13.99,1,13.99,1 M13.99,0C12.99,0,12,0.74,12,0.74S11.01,0,10.01,0
C9.86,0,9.7,0.02,9.55,0.06C8.05,0.47,7.13,2.3,8.06,5.25C8.23,5.81,8.48,6.61,8.8,7.47C8.08,6.9,7.39,6.42,6.92,6.08
C5.68,5.2,4.56,4.83,3.65,4.83c-0.96,0-1.69,0.4-2.13,1.07C0.88,6.88,1.41,8.43,1.41,8.43S0.06,9.38,0,10.56
c-0.08,1.55,1.38,2.99,4.48,3.02c0.27,0,0.59,0.01,0.95,0.01c0.42,0,0.9-0.01,1.4-0.03c-0.77,0.51-1.44,1.01-1.91,1.36
C2.43,16.77,2.1,18.79,3.07,20c0.7,0.87,2.23,0.89,2.37,0.89c0.01,0,0.01,0,0.01,0s0.48,1.57,1.58,1.99
c0.26,0.1,0.53,0.15,0.81,0.15c1.27,0,2.64-1.06,3.45-3.47c0.19-0.55,0.46-1.35,0.7-2.24c0.24,0.89,0.52,1.68,0.71,2.24
c0.81,2.41,2.18,3.47,3.45,3.47c0.28,0,0.55-0.05,0.81-0.15c1.1-0.42,1.58-1.99,1.58-1.99s0,0,0.01,0c0.16,0,1.67-0.02,2.37-0.89
c0.97-1.21,0.64-3.23-1.84-5.08c-0.47-0.35-1.14-0.85-1.91-1.36c0.51,0.02,1,0.03,1.44,0.03c0.34,0,0.65,0,0.9-0.01
c3.09-0.03,4.55-1.47,4.48-3.02c-0.06-1.17-1.4-2.12-1.4-2.12s0.53-1.56-0.11-2.54c-0.43-0.66-1.17-1.07-2.13-1.07
c-0.92,0-2.03,0.37-3.27,1.25c-0.47,0.34-1.16,0.82-1.88,1.4c0.32-0.86,0.57-1.67,0.74-2.22c0.92-2.95,0-4.78-1.49-5.19
C14.3,0.02,14.14,0,13.99,0L13.99,0z"/>
</svg>